<svg width="40" height="40" viewBox="0 0 40 40" fill="none" xmlns="http://www.w3.org/2000/svg">
<g clip-path="url(#clip0_474_24037)">
<path d="M30.9951 38.024C28.8617 40.0921 26.5325 39.7655 24.2903 38.7859C21.9175 37.7846 19.7406 37.741 17.2372 38.7859C14.1024 40.1356 12.448 39.7438 10.5759 38.024C-0.0473228 27.0743 1.52004 10.3993 13.58 9.7898C16.5188 9.94218 18.5651 11.4007 20.2848 11.5313C22.8535 11.0089 25.3134 9.5068 28.0563 9.70272C31.3434 9.96395 33.825 11.2701 35.4577 13.6211C28.6658 17.6919 30.2767 26.6389 36.5026 29.1423C35.2618 32.4077 33.6509 35.6512 30.9733 38.0458L30.9951 38.024ZM20.0671 9.65918C19.7406 4.80472 23.6808 0.799251 28.2087 0.407412C28.84 6.02378 23.1148 10.2034 20.0671 9.65918Z" fill="#1B212B"/>
</g>
<defs>
<clipPath id="clip0_474_24037">
<rect width="40" height="40" fill="white"/>
</clipPath>
</defs>
</svg>
