<svg width="97" height="97" viewBox="0 0 97 97" fill="none" xmlns="http://www.w3.org/2000/svg">
<g opacity="0.5">
<path d="M51.1714 21.66C51.1714 20.2793 50.0521 19.16 48.6714 19.16C47.2907 19.16 46.1714 20.2793 46.1714 21.66L51.1714 21.66ZM46.9036 76.4373C47.8799 77.4136 49.4628 77.4136 50.4392 76.4373L66.3491 60.5274C67.3254 59.5511 67.3254 57.9682 66.3491 56.9919C65.3727 56.0156 63.7898 56.0156 62.8135 56.9919L48.6714 71.134L34.5293 56.9919C33.5529 56.0156 31.97 56.0156 30.9937 56.9919C30.0174 57.9682 30.0174 59.5511 30.9937 60.5274L46.9036 76.4373ZM46.1714 21.66L46.1714 74.6696L51.1714 74.6696L51.1714 21.66L46.1714 21.66Z" fill="white"/>
</g>
</svg>
