<svg width="175" height="63" viewBox="0 0 175 63" fill="none" xmlns="http://www.w3.org/2000/svg">
<path opacity="0.4" d="M5.25664 23.2649C9.80928 19.5334 14.8314 16.4147 20.1946 13.9884C23.5911 12.371 27.4312 10.7286 31.5735 9.10702C35.9984 7.34657 40.5401 5.89532 45.1659 4.76374C47.6586 4.16357 50.1881 3.72797 52.7379 3.45976C55.3818 3.14967 58.0481 3.07808 60.7048 3.24586C63.4289 3.38645 66.1268 3.84921 68.742 4.62445C71.3951 5.3699 73.9344 6.47265 76.2903 7.9024L76.6738 8.14954C76.5563 8.25195 76.4123 8.33873 76.2811 8.44019C71.3446 12.2992 67.7947 17.6569 66.1655 23.7072C65.3722 26.7848 65.2137 29.9916 65.6997 33.1324C66.2065 36.4226 67.5482 39.528 69.5967 42.1521C70.6348 43.5684 71.892 44.8103 73.3209 45.8309C74.9139 46.9865 76.7493 47.7637 78.6877 48.1035C80.5779 48.3861 82.5066 48.2665 84.3474 47.7526C86.1883 47.2387 87.9 46.342 89.3705 45.1211C92.0334 42.9081 93.8366 39.8318 94.4664 36.4272C95.0613 33.3127 95.0365 30.1115 94.3935 27.0066C93.7877 23.948 92.7135 21.0012 91.2087 18.2703C89.3231 14.8663 86.8713 11.8085 83.9585 9.22811C84.7497 8.84352 85.5657 8.51196 86.401 8.23564C91.3172 6.56971 96.5423 6.0173 101.698 6.61838C106.51 7.14622 111.214 8.39919 115.65 10.3347C119.533 12.0049 123.198 14.1428 126.563 16.7008C129.372 18.9405 131.974 21.429 134.337 24.136C138.077 28.3327 141.346 32.9269 144.085 37.8361C145.948 41.1143 147.561 44.5292 148.908 48.0513C149.97 50.8852 150.642 52.9744 151.123 54.6089C151.565 56.0197 151.818 56.962 152.045 57.6817L151.169 56.9728C148.67 54.9517 146.376 53.1656 144.406 51.7053C140.463 48.7985 137.817 47.1125 137.441 47.5562C137.066 47.9999 138.982 50.2572 142.421 53.668C144.14 55.3871 146.227 57.3662 148.591 59.5299L149.488 60.3506C149.87 60.7079 150.282 61.0318 150.719 61.3185C151.003 61.4979 151.302 61.6523 151.613 61.78C152.007 61.9432 152.423 62.0506 152.847 62.0992C153.721 62.1993 154.604 62.0179 155.368 61.5815C156.305 60.9652 157.118 60.1778 157.763 59.2604L159.432 57.2624C168.486 46.0092 175.124 36.3715 174.201 35.7423C173.277 35.113 165.178 43.7119 156.111 54.9641L154.932 56.4573C154.888 55.649 154.791 54.8444 154.641 54.0489C154.243 51.6681 153.666 49.321 152.913 47.0277C151.712 43.2401 150.166 39.5711 148.293 36.0671C145.533 30.799 142.163 25.8742 138.252 21.3944C135.69 18.436 132.858 15.7231 129.792 13.2909C126.09 10.443 122.045 8.06971 117.754 6.22652C112.81 4.06757 107.565 2.67947 102.2 2.11061C96.2334 1.43554 90.1912 2.10695 84.5183 4.07543C82.8813 4.63582 81.3053 5.36052 79.8143 6.23844C79.2991 5.89944 78.7839 5.56044 78.2521 5.26172C75.5885 3.69724 72.7265 2.49828 69.7432 1.69712C66.8536 0.908828 63.8821 0.459828 60.8886 0.359208C58.0333 0.236446 55.1728 0.373321 52.3424 0.768144C49.6862 1.09986 47.0549 1.60691 44.4657 2.28598C39.7537 3.53934 35.1405 5.13852 30.6637 7.07049C26.4838 8.83681 22.6811 10.6059 19.2556 12.3779C13.8842 15.0426 8.93584 18.486 4.57068 22.5967C3.42848 23.703 2.37297 24.8954 1.41346 26.1633C0.787026 27.0454 0.494889 27.481 0.557952 27.5682C0.621014 27.6553 2.16152 25.9246 5.28413 23.2668L5.25664 23.2649ZM79.5163 12.0027C79.8815 11.7102 80.2723 11.447 80.663 11.1838C83.5088 13.65 85.8749 16.6202 87.6426 19.9452C88.9277 22.3764 89.8336 24.9897 90.3288 27.6947C90.8396 30.3446 90.8219 33.0693 90.277 35.7124C89.7727 38.2268 88.4071 40.4867 86.4156 42.1024C85.447 42.9076 84.3197 43.4997 83.107 43.8401C81.8943 44.1804 80.6236 44.2615 79.3774 44.078C76.904 43.4609 74.7488 41.9452 73.3316 39.8261C71.7336 37.7247 70.7006 35.2489 70.3311 32.6349C69.9841 30.0375 70.1649 27.3968 70.8626 24.871C71.5482 22.3305 72.646 19.9198 74.1123 17.7349C75.5686 15.5343 77.3863 13.5956 79.4888 12.0008" fill="#3F6DFA"/>
</svg>
