<svg width="166" height="78" viewBox="0 0 166 78" fill="none" xmlns="http://www.w3.org/2000/svg">
<path opacity="0.4" d="M152.959 74.876C152.798 75.2671 152.596 75.6403 152.357 75.9896C151.931 76.6531 151.299 77.1581 150.558 77.4269C149.633 77.6782 148.649 77.5855 147.787 77.1661C147.312 76.9927 146.836 76.8192 146.394 76.6469C145.482 76.321 144.59 75.9892 143.732 75.6585C141.988 74.983 140.309 74.3426 138.715 73.7312C135.548 72.4696 132.733 71.2984 130.382 70.2608C125.7 68.1796 122.937 66.6346 123.146 66.0946C123.354 65.5546 126.492 66.0972 131.455 67.4431C133.936 68.1161 136.879 68.9883 140.113 70.0018C141.73 70.5414 143.444 71.0842 145.217 71.675C146.082 71.9533 146.962 72.2452 147.857 72.5507C147.561 72.0293 147.293 71.4929 147.052 70.9438C145.904 68.7659 144.312 65.0256 141.279 59.1836C136.999 50.852 131.832 43.0062 125.87 35.7824C121.49 30.5446 116.57 25.7843 111.19 21.5807C108.22 19.2719 105.102 17.16 101.856 15.2586C98.4405 13.3077 94.9006 11.5827 91.2593 10.0947C87.5319 8.62664 83.7022 7.43304 79.8008 6.52345C75.8428 5.61491 71.816 5.03767 67.7623 4.79768C59.7323 4.30273 51.6788 5.25199 43.984 7.60042C40.3211 8.74755 36.7515 10.1739 33.3067 11.8668C30.07 13.4969 26.9599 15.3673 24.0027 17.4621C18.8924 21.0036 14.2662 25.1968 10.2412 29.9355C7.54043 33.2049 5.10019 36.681 2.94285 40.3318C2.2975 41.7772 1.47707 43.1378 0.499969 44.3831C0.791509 42.8144 1.31327 41.2974 2.04837 39.8813C3.87768 35.9201 6.11391 32.1598 8.72109 28.6612C12.6258 23.4868 17.2306 18.8801 22.4033 14.9732C25.4245 12.6608 28.6187 10.5837 31.9578 8.76026C35.5315 6.84439 39.254 5.21985 43.0889 3.90245C51.1701 1.18405 59.6779 -0.0434716 68.1979 0.279706C72.4901 0.437838 76.7615 0.956905 80.9666 1.83145C85.1168 2.70944 89.1941 3.90248 93.163 5.40019C100.744 8.28457 107.865 12.2556 114.303 17.1887C119.967 21.5506 125.137 26.5196 129.72 32.007C135.968 39.5115 141.229 47.786 145.373 56.6282C147.329 60.7159 148.955 64.9537 150.234 69.3009L150.357 69.7857C152.907 63.3145 155.964 57.0543 159.498 51.0634C162.6 45.7949 164.975 42.8282 165.473 43.1144C166.508 43.6748 159.521 56.9004 153.317 73.9983L152.959 74.876Z" fill="#3F6DFA"/>
</svg>
