<svg width="33" height="33" viewBox="0 0 33 33" fill="#010ABC" xmlns="http://www.w3.org/2000/svg">
<g clip-path="url(#clip0_1051_185)">
<path d="M16.3042 0.454102C7.46773 0.454102 0.304199 7.61764 0.304199 16.4541C0.304199 25.2906 7.46773 32.4541 16.3042 32.4541C25.1407 32.4541 32.3042 25.2906 32.3042 16.4541C32.2943 7.62184 25.1365 0.463968 16.3042 0.454102ZM16.8753 5.06684L22.4375 2.84344C23.0688 3.12911 23.6795 3.45828 24.2651 3.82857L24.2797 3.8377C24.8553 4.20234 25.4053 4.60572 25.9261 5.04503L25.9709 5.08403C26.2042 5.28292 26.4315 5.48883 26.6524 5.7015C26.6803 5.72884 26.7094 5.75484 26.7373 5.78277C26.9687 6.00873 27.193 6.24182 27.4099 6.4817C27.4279 6.50204 27.4451 6.52337 27.4631 6.5437C27.6534 6.75697 27.8365 6.97777 28.0141 7.2023C28.0568 7.25564 28.0995 7.30904 28.1409 7.36244C28.3336 7.6119 28.5201 7.86577 28.6961 8.12777L27.5873 12.8414L22.1318 14.66L16.8766 10.4552L16.8753 5.06684ZM4.46693 7.3655C4.50833 7.31217 4.55053 7.25884 4.59327 7.20564C4.76859 6.98327 4.95017 6.76592 5.1378 6.55384C5.15813 6.53144 5.17687 6.5085 5.19693 6.4861C5.41241 6.24582 5.63584 6.0128 5.86687 5.78744C5.89347 5.76144 5.92 5.7341 5.94787 5.7101C6.16695 5.4988 6.39232 5.29411 6.62367 5.0963L6.677 5.0515C7.1931 4.61541 7.73792 4.21451 8.3078 3.8515L8.3286 3.83817C8.91081 3.46873 9.51783 3.13993 10.1453 2.8541L15.7331 5.06684V10.4536L10.4777 14.6578L5.0222 12.8424L3.91333 8.12884C4.09012 7.86886 4.27474 7.6143 4.46693 7.3655ZM3.82427 24.6382C3.66735 24.399 3.51737 24.1553 3.37453 23.9075L3.33987 23.8476C3.19769 23.6008 3.06308 23.3497 2.9362 23.0947L2.9318 23.0867C2.66455 22.5502 2.43001 21.9981 2.22947 21.4332V21.428C2.13467 21.1614 2.0482 20.8882 1.96827 20.6135L1.93933 20.5122C1.86587 20.2531 1.79953 19.9921 1.7404 19.7294C1.7352 19.7036 1.72867 19.6791 1.72347 19.6536C1.5925 19.0578 1.49839 18.4545 1.44167 17.8471L4.69767 13.94L10.1154 15.7458L11.6878 22.0348L9.1042 25.4723L3.82427 24.6382ZM19.8557 30.957C19.5891 31.0231 19.3154 31.0802 19.0417 31.1314C19.0034 31.139 18.9644 31.1452 18.9261 31.1523C18.693 31.194 18.4573 31.2296 18.2211 31.2588C18.1581 31.2668 18.0956 31.2754 18.0329 31.283C17.8135 31.3085 17.5922 31.3278 17.3703 31.3437C17.3005 31.3484 17.2315 31.3554 17.1617 31.3598C16.8781 31.3773 16.5922 31.3874 16.3042 31.3874C16.0404 31.3874 15.7782 31.3804 15.5175 31.3666C15.486 31.3666 15.4557 31.3614 15.4242 31.359C15.1922 31.3458 14.9612 31.3284 14.7307 31.3059L14.7042 31.301C14.1992 31.2462 13.6973 31.1661 13.2003 31.0611L10.0456 26.1218L12.5886 22.7309H20.0198L22.6045 26.1442L19.8557 30.957ZM30.8889 19.6541C30.8834 19.6796 30.8771 19.7044 30.8717 19.7299C30.8122 19.9925 30.7458 20.2536 30.6727 20.5127L30.644 20.614C30.5646 20.888 30.4775 21.1596 30.3826 21.4286V21.4338C30.1822 21.9986 29.9476 22.5508 29.6803 23.0872L29.6758 23.0952C29.5485 23.35 29.414 23.6011 29.2722 23.8481L29.2375 23.908C29.0958 24.156 28.9461 24.3994 28.7886 24.6377L23.5266 25.4674L20.9251 22.0327L22.4967 15.7452L27.9143 13.9395L31.1703 17.8466C31.1138 18.4543 31.0198 19.058 30.8889 19.6541Z" fill="#010ABC"/>
</g>
<defs>
<clipPath id="clip0_1051_185">
<rect width="32" height="32" fill="#010ABC" transform="translate(0.304199 0.454102)"/>
</clipPath>
</defs>
</svg>
