<svg width="12" height="9" viewBox="0 0 12 9" fill="none" xmlns="http://www.w3.org/2000/svg">
<path d="M4.23696 8.13983C4.14123 8.13983 4.05149 8.12476 3.96773 8.0946C3.88397 8.06493 3.80619 8.01419 3.73439 7.9424L0.64719 4.85519C0.515565 4.72357 0.452624 4.55294 0.458368 4.34329C0.46459 4.13413 0.533514 3.96374 0.665139 3.83211C0.796763 3.70049 0.964286 3.63467 1.16771 3.63467C1.37113 3.63467 1.53865 3.70049 1.67027 3.83211L4.23696 6.3988L10.3216 0.314137C10.4532 0.182512 10.6239 0.116699 10.8335 0.116699C11.0427 0.116699 11.2131 0.182512 11.3447 0.314137C11.4763 0.445761 11.5421 0.616156 11.5421 0.82532C11.5421 1.03496 11.4763 1.2056 11.3447 1.33722L4.73953 7.9424C4.66773 8.01419 4.58995 8.06493 4.50619 8.0946C4.42243 8.12476 4.33269 8.13983 4.23696 8.13983Z" fill="#010ABC"/>
</svg>
