<svg width="1440" height="777" viewBox="0 0 1440 777" fill="none" xmlns="http://www.w3.org/2000/svg">
<g opacity="0.1">
<g filter="url(#filter0_f_474_24309)">
<rect x="52.2109" y="24.8599" width="1339.35" height="687.805" rx="6.5" stroke="#3EC5FF" stroke-width="7"/>
<rect x="465.387" y="24.8599" width="509.227" height="235.248" rx="6.5" stroke="#3EC5FF" stroke-width="7"/>
<rect x="566.599" y="24.8599" width="295.487" height="116.525" rx="6.5" stroke="#3EC5FF" stroke-width="7"/>
<path fill-rule="evenodd" clip-rule="evenodd" d="M574.373 256.874C597.357 316.126 652.982 357.918 717.952 357.918C782.923 357.918 838.548 316.126 861.531 256.874H854.007C831.417 312.271 778.856 350.918 717.952 350.918C657.049 350.918 604.488 312.271 581.898 256.874H574.373Z" fill="#3EC5FF"/>
<path fill-rule="evenodd" clip-rule="evenodd" d="M874.253 707.826C870.915 621.579 802.92 552.727 719.528 552.727C636.136 552.727 568.14 621.579 564.803 707.826L571.808 707.826C575.138 625.182 640.268 559.727 719.528 559.727C798.787 559.727 863.918 625.182 867.248 707.826L874.253 707.826Z" fill="#3EC5FF"/>
<path fill-rule="evenodd" clip-rule="evenodd" d="M51.3718 107.176C73.1253 119.224 104.415 111.041 125.891 86.1199C142.421 66.9393 148.901 42.7602 144.74 22.9124L140.435 26.7981C143.108 44.2297 137.281 65.2521 122.249 82.695C102.29 105.855 74.6216 112.82 55.3974 103.543L51.3718 107.176Z" fill="#3EC5FF"/>
<path fill-rule="evenodd" clip-rule="evenodd" d="M1292.87 25.4907C1280.45 54.6128 1295.78 93.3837 1329.43 115.014C1349.97 128.22 1372.9 132.182 1392.03 127.643L1387.83 123.311C1370.76 126.481 1350.6 122.683 1331.97 110.706C1300.39 90.4043 1286.91 55.3963 1296.66 29.3996L1292.87 25.4907Z" fill="#3EC5FF"/>
</g>
<g filter="url(#filter1_f_474_24309)">
<rect x="52.2109" y="24.8599" width="1339.35" height="687.805" rx="6.5" stroke="#3EC5FF" stroke-width="7"/>
<rect x="465.387" y="24.8599" width="509.227" height="235.248" rx="6.5" stroke="#3EC5FF" stroke-width="7"/>
<rect x="566.599" y="24.8599" width="295.487" height="116.525" rx="6.5" stroke="#3EC5FF" stroke-width="7"/>
<path fill-rule="evenodd" clip-rule="evenodd" d="M574.373 256.874C597.357 316.126 652.982 357.918 717.952 357.918C782.923 357.918 838.548 316.126 861.531 256.874H854.007C831.417 312.271 778.856 350.918 717.952 350.918C657.049 350.918 604.488 312.271 581.898 256.874H574.373Z" fill="#3EC5FF"/>
<path fill-rule="evenodd" clip-rule="evenodd" d="M874.253 707.826C870.915 621.579 802.92 552.727 719.528 552.727C636.136 552.727 568.14 621.579 564.803 707.826L571.808 707.826C575.138 625.182 640.268 559.727 719.528 559.727C798.787 559.727 863.918 625.182 867.248 707.826L874.253 707.826Z" fill="#3EC5FF"/>
<path fill-rule="evenodd" clip-rule="evenodd" d="M51.3718 107.176C73.1253 119.224 104.415 111.041 125.891 86.1199C142.421 66.9393 148.901 42.7602 144.74 22.9124L140.435 26.7981C143.108 44.2297 137.281 65.2521 122.249 82.695C102.29 105.855 74.6216 112.82 55.3974 103.543L51.3718 107.176Z" fill="#3EC5FF"/>
<path fill-rule="evenodd" clip-rule="evenodd" d="M1292.87 25.4907C1280.45 54.6128 1295.78 93.3837 1329.43 115.014C1349.97 128.22 1372.9 132.182 1392.03 127.643L1387.83 123.311C1370.76 126.481 1350.6 122.683 1331.97 110.706C1300.39 90.4043 1286.91 55.3963 1296.66 29.3996L1292.87 25.4907Z" fill="#3EC5FF"/>
</g>
<g filter="url(#filter2_f_474_24309)">
<rect x="52.2109" y="24.8604" width="1339.35" height="701.687" rx="6.5" stroke="#0CA2F1" stroke-width="7"/>
<rect x="465.387" y="24.8599" width="509.227" height="235.248" rx="6.5" stroke="#0CA2F1" stroke-width="7"/>
<rect x="566.599" y="24.8599" width="295.487" height="116.525" rx="6.5" stroke="#0CA2F1" stroke-width="7"/>
<path fill-rule="evenodd" clip-rule="evenodd" d="M574.373 256.874C597.357 316.126 652.982 357.918 717.952 357.918C782.923 357.918 838.548 316.126 861.531 256.874H854.007C831.417 312.271 778.856 350.918 717.952 350.918C657.049 350.918 604.488 312.271 581.898 256.874H574.373Z" fill="#0CA2F1"/>
<path fill-rule="evenodd" clip-rule="evenodd" d="M874.253 707.826C870.915 621.579 802.92 552.727 719.528 552.727C636.136 552.727 568.14 621.579 564.803 707.826L571.808 707.826C575.138 625.182 640.268 559.727 719.528 559.727C798.787 559.727 863.918 625.182 867.248 707.826L874.253 707.826Z" fill="#0CA2F1"/>
<path fill-rule="evenodd" clip-rule="evenodd" d="M51.3718 107.176C73.1253 119.224 104.415 111.041 125.891 86.1199C142.421 66.9393 148.901 42.7602 144.74 22.9124L140.435 26.7981C143.108 44.2297 137.281 65.2521 122.249 82.695C102.29 105.855 74.6216 112.82 55.3974 103.543L51.3718 107.176Z" fill="#0CA2F1"/>
<path fill-rule="evenodd" clip-rule="evenodd" d="M1292.87 25.4907C1280.45 54.6128 1295.78 93.3837 1329.43 115.014C1349.97 128.22 1372.9 132.182 1392.03 127.643L1387.83 123.311C1370.76 126.481 1350.6 122.683 1331.97 110.706C1300.39 90.4043 1286.91 55.3963 1296.66 29.3996L1292.87 25.4907Z" fill="#0CA2F1"/>
</g>
<g opacity="0.05" filter="url(#filter3_f_474_24309)">
<rect x="52.2109" y="24.8604" width="1339.35" height="701.687" rx="6.5" stroke="#D2E0FB" stroke-width="7"/>
<rect x="465.387" y="24.8599" width="509.227" height="235.248" rx="6.5" stroke="#D2E0FB" stroke-width="7"/>
<rect x="566.599" y="24.8599" width="295.487" height="116.525" rx="6.5" stroke="#D2E0FB" stroke-width="7"/>
<path fill-rule="evenodd" clip-rule="evenodd" d="M574.373 256.874C597.357 316.126 652.982 357.918 717.952 357.918C782.923 357.918 838.548 316.126 861.531 256.874H854.007C831.417 312.271 778.856 350.918 717.952 350.918C657.049 350.918 604.488 312.271 581.898 256.874H574.373Z" fill="#D2E0FB"/>
<path fill-rule="evenodd" clip-rule="evenodd" d="M873.811 707.826C867.021 628.492 800.474 566.219 719.382 566.219C638.289 566.219 571.742 628.492 564.952 707.826L571.979 707.826C578.748 632.363 642.158 573.219 719.382 573.219C796.605 573.219 860.015 632.363 866.784 707.826L873.811 707.826Z" fill="#D2E0FB"/>
<path fill-rule="evenodd" clip-rule="evenodd" d="M51.3718 107.176C73.1253 119.224 104.415 111.041 125.891 86.1199C142.421 66.9393 148.901 42.7602 144.74 22.9124L140.435 26.7981C143.108 44.2297 137.281 65.2521 122.249 82.695C102.29 105.855 74.6216 112.82 55.3974 103.543L51.3718 107.176Z" fill="#D2E0FB"/>
<path fill-rule="evenodd" clip-rule="evenodd" d="M1292.87 25.4907C1280.45 54.6128 1295.78 93.3837 1329.43 115.014C1349.97 128.22 1372.9 132.182 1392.03 127.643L1387.83 123.311C1370.76 126.481 1350.6 122.683 1331.97 110.706C1300.39 90.4043 1286.91 55.3963 1296.66 29.3996L1292.87 25.4907Z" fill="#D2E0FB"/>
</g>
</g>
<defs>
<filter id="filter0_f_474_24309" x="-11.2891" y="-38.6401" width="1466.35" height="814.805" filterUnits="userSpaceOnUse" color-interpolation-filters="sRGB">
<feFlood flood-opacity="0" result="BackgroundImageFix"/>
<feBlend mode="normal" in="SourceGraphic" in2="BackgroundImageFix" result="shape"/>
<feGaussianBlur stdDeviation="30" result="effect1_foregroundBlur_474_24309"/>
</filter>
<filter id="filter1_f_474_24309" x="33.7109" y="6.35989" width="1376.35" height="724.805" filterUnits="userSpaceOnUse" color-interpolation-filters="sRGB">
<feFlood flood-opacity="0" result="BackgroundImageFix"/>
<feBlend mode="normal" in="SourceGraphic" in2="BackgroundImageFix" result="shape"/>
<feGaussianBlur stdDeviation="7.5" result="effect1_foregroundBlur_474_24309"/>
</filter>
<filter id="filter2_f_474_24309" x="44.7109" y="17.3599" width="1354.35" height="716.687" filterUnits="userSpaceOnUse" color-interpolation-filters="sRGB">
<feFlood flood-opacity="0" result="BackgroundImageFix"/>
<feBlend mode="normal" in="SourceGraphic" in2="BackgroundImageFix" result="shape"/>
<feGaussianBlur stdDeviation="2" result="effect1_foregroundBlur_474_24309"/>
</filter>
<filter id="filter3_f_474_24309" x="48.2109" y="20.8599" width="1347.35" height="709.687" filterUnits="userSpaceOnUse" color-interpolation-filters="sRGB">
<feFlood flood-opacity="0" result="BackgroundImageFix"/>
<feBlend mode="normal" in="SourceGraphic" in2="BackgroundImageFix" result="shape"/>
<feGaussianBlur stdDeviation="0.25" result="effect1_foregroundBlur_474_24309"/>
</filter>
</defs>
</svg>
