<svg width="32" height="33" viewBox="0 0 32 33" fill="none" xmlns="http://www.w3.org/2000/svg">
<path d="M16.0001 0.325195C7.16358 0.325195 0 7.48878 0 16.3253C0 24.2506 5.76835 30.8141 13.3316 32.0851V19.6633H9.47191V15.1933H13.3316V11.8972C13.3316 8.07282 15.6674 5.98876 19.0795 5.98876C20.7137 5.98876 22.1181 6.11053 22.5258 6.16417V10.1617L20.1593 10.1628C18.304 10.1628 17.9464 11.0442 17.9464 12.3381V15.191H22.3731L21.7957 19.6611H17.9464V32.192C25.8627 31.2285 32 24.4978 32 16.3207C32 7.48877 24.8364 0.325195 16.0001 0.325195Z" fill="white"/>
<path d="M13.3316 19.6633V32.0851L15.8122 32.192H17.9464V19.6611H21.7957L22.3731 15.191H17.9464V12.3381C17.9464 11.0442 18.304 10.1628 20.1593 10.1628L22.5258 10.1617V6.16417C22.1181 6.11053 20.7137 5.98876 19.0795 5.98876C15.6674 5.98876 13.3316 8.07282 13.3316 11.8972V15.1933H9.47191V19.6633H13.3316Z" fill="#1B212B"/>
</svg>
