<svg width="40" height="40" viewBox="0 0 40 40" fill="none" xmlns="http://www.w3.org/2000/svg">
<g clip-path="url(#clip0_474_24027)">
<path d="M19.9998 40C31.0455 40 39.9998 31.0457 39.9998 20C39.9998 8.9543 31.0455 -3.8147e-06 19.9998 -3.8147e-06C8.95406 -3.8147e-06 -0.000244141 8.9543 -0.000244141 20C-0.000244141 31.0457 8.95406 40 19.9998 40Z" fill="#3577E5"/>
<path d="M21.8664 31.8667V21.0667H25.4664L25.9998 16.8H21.8664V14.1333C21.8664 12.9333 22.2664 12.1333 23.9998 12.1333H26.2664V8.26666C25.8664 8.26666 24.5331 8.13333 23.0664 8.13333C19.8664 8.13333 17.5998 10.1333 17.5998 13.7333V16.8H13.9998V21.0667H17.5998V31.8667H21.8664Z" fill="white"/>
</g>
<defs>
<clipPath id="clip0_474_24027">
<rect width="40" height="40" fill="white" transform="translate(-0.000244141 -3.8147e-06)"/>
</clipPath>
</defs>
</svg>
