<svg width="40" height="41" viewBox="0 0 40 41" fill="none" xmlns="http://www.w3.org/2000/svg">
<path d="M10.8049 7.98206L10.8057 7.98161C13.6329 6.42749 16.7412 5.65016 20.0001 5.65016C23.3066 5.65016 26.0493 6.34313 29.2286 7.98207C29.3685 8.06127 29.5266 8.10016 29.6834 8.10016C30.0587 8.10016 30.3754 7.89989 30.5499 7.55273C30.8065 7.076 30.6221 6.49179 30.1439 6.20487L30.1441 6.20453L30.1344 6.1996C26.7154 4.47335 23.5924 3.6835 20.0001 3.6835C16.4096 3.6835 12.9847 4.52252 9.86138 6.25193C9.388 6.50879 9.21273 7.11663 9.4682 7.58827L9.46814 7.58831L9.47053 7.59241C9.74262 8.05884 10.3301 8.23922 10.8049 7.98206ZM5.25919 16.6695L5.25901 16.6697L5.26689 16.675C5.44075 16.7909 5.63622 16.8502 5.83343 16.8502C6.14083 16.8502 6.44516 16.7151 6.61076 16.4134C8.09665 14.352 9.97685 12.7041 12.2187 11.5502L12.219 11.55C16.9424 9.10579 23.0079 9.10563 27.7484 11.5337L27.7485 11.5337C29.9764 12.6725 31.8579 14.3061 33.3441 16.4198L33.344 16.4198L33.3475 16.4244C33.6642 16.8402 34.2718 16.9345 34.7191 16.6233L34.7191 16.6233L34.7217 16.6215C35.1509 16.3093 35.273 15.6839 34.9554 15.2462C33.2913 12.8931 31.1728 11.0774 28.6519 9.78338C23.3585 7.06112 16.6409 7.07819 11.3317 9.80001L11.3316 9.80005C8.80964 11.0947 6.69128 12.9442 5.02763 15.2969L5.02762 15.2969L5.02696 15.2978C4.70976 15.7538 4.85201 16.3592 5.25919 16.6695ZM13.9148 31.261L13.9148 31.261L13.9137 31.2592C12.9121 29.5023 12.3834 27.3121 12.3834 24.9335C12.3834 20.9913 15.7911 17.7668 20.0001 17.7668C24.2091 17.7668 27.6168 20.9913 27.6168 24.9335C27.6168 25.1943 27.7204 25.4444 27.9048 25.6288C28.0892 25.8132 28.3393 25.9168 28.6001 25.9168C28.8609 25.9168 29.111 25.8132 29.2954 25.6288C29.4798 25.4444 29.5834 25.1943 29.5834 24.9335C29.5834 19.8938 25.276 15.8002 20.0001 15.8002C14.7242 15.8002 10.4168 19.8938 10.4168 24.9335C10.4168 27.6383 11.0215 30.1642 12.1857 32.2398C13.3104 34.2708 14.1029 35.2151 15.5607 36.6729C15.754 36.8662 15.9916 36.9668 16.2501 36.9668C16.5099 36.9668 16.7428 36.8654 16.9628 36.6821L16.9695 36.6765L16.9755 36.6701C17.3472 36.2789 17.3472 35.6714 16.9755 35.2802L16.9755 35.2802L16.9735 35.2781C15.6962 33.9842 14.9727 33.1785 13.9148 31.261ZM24.0508 30.7426L24.0504 30.7423C22.0569 29.4024 20.8834 27.2316 20.8834 24.9335C20.8834 24.6727 20.7798 24.4226 20.5954 24.2382C20.411 24.0538 20.1609 23.9502 19.9001 23.9502C19.6393 23.9502 19.3892 24.0538 19.2048 24.2382C19.0204 24.4226 18.9168 24.6727 18.9168 24.9335C18.9168 27.8852 20.4264 30.664 22.9489 32.3741C24.4107 33.3768 26.1913 33.8835 28.2001 33.8835C28.4386 33.8835 29.2818 33.8666 30.2442 33.681C30.79 33.5829 31.1451 33.0574 31.0481 32.5421C30.967 31.9888 30.4348 31.6386 29.907 31.7358C29.2484 31.8511 28.5906 31.9002 28.2001 31.9002C26.5579 31.9002 25.2051 31.523 24.0508 30.7426ZM24.5917 37.3109L24.6122 37.3168H24.6334H24.6338H24.6342H24.6346H24.635H24.6354H24.6358H24.6362H24.6366H24.637H24.6374H24.6378H24.6381H24.6385H24.6389H24.6393H24.6397H24.6401H24.6405H24.6409H24.6413H24.6417H24.6421H24.6425H24.6429H24.6433H24.6437H24.6441H24.6445H24.6449H24.6453H24.6457H24.6461H24.6465H24.6469H24.6473H24.6477H24.6481H24.6485H24.6489H24.6493H24.6498H24.6502H24.6506H24.651H24.6514H24.6518H24.6522H24.6526H24.653H24.6534H24.6538H24.6542H24.6546H24.655H24.6555H24.6559H24.6563H24.6567H24.6571H24.6575H24.6579H24.6583H24.6587H24.6591H24.6596H24.66H24.6604H24.6608H24.6612H24.6616H24.662H24.6625H24.6629H24.6633H24.6637H24.6641H24.6645H24.6649H24.6654H24.6658H24.6662H24.6666H24.667H24.6674H24.6679H24.6683H24.6687H24.6691H24.6695H24.67H24.6704H24.6708H24.6712H24.6716H24.6721H24.6725H24.6729H24.6733H24.6737H24.6742H24.6746H24.675H24.6754H24.6758H24.6763H24.6767H24.6771H24.6775H24.678H24.6784H24.6788H24.6792H24.6796H24.6801H24.6805H24.6809H24.6813H24.6818H24.6822H24.6826H24.6831H24.6835H24.6839H24.6843H24.6848H24.6852H24.6856H24.686H24.6865H24.6869H24.6873H24.6877H24.6882H24.6886H24.689H24.6895H24.6899H24.6903H24.6907H24.6912H24.6916H24.692H24.6925H24.6929H24.6933H24.6938H24.6942H24.6946H24.695H24.6955H24.6959H24.6963H24.6968H24.6972H24.6976H24.6981H24.6985H24.6989H24.6994H24.6998H24.7002H24.7007H24.7011H24.7015H24.702H24.7024H24.7028H24.7033H24.7037H24.7041H24.7046H24.705H24.7054H24.7059H24.7063H24.7067H24.7072H24.7076H24.708H24.7085H24.7089H24.7093H24.7098H24.7102H24.7107H24.7111H24.7115H24.712H24.7124H24.7128H24.7133H24.7137H24.7141H24.7146H24.715H24.7155H24.7159H24.7163H24.7168H24.7172H24.7176H24.7181H24.7185H24.7189H24.7194H24.7198H24.7203H24.7207H24.7211H24.7216H24.722H24.7225H24.7229H24.7233H24.7238H24.7242H24.7246H24.7251H24.7255H24.726H24.7264H24.7268H24.7273H24.7277H24.7281H24.7286H24.729H24.7295H24.7299H24.7303H24.7308H24.7312H24.7317H24.7321H24.7325H24.733H24.7334H24.7339H24.7343H24.7347H24.7352H24.7356H24.7361H24.7365H24.7369H24.7374H24.7378H24.7382H24.7387H24.7391H24.7396H24.74H24.7404H24.7409H24.7413H24.7418H24.7422H24.7426H24.7431H24.7435H24.744H24.7444H24.7448H24.7453H24.7457H24.7462H24.7466H24.747H24.7475H24.7479H24.7484H24.7488H24.7492H24.7497H24.7501H24.7506H24.751H24.7514H24.7519H24.7523H24.7527H24.7532H24.7536H24.7541H24.7545H24.7549H24.7554H24.7558H24.7563H24.7567H24.7571H24.7576H24.758H24.7585H24.7589H24.7593H24.7598H24.7602H24.7606H24.7611H24.7615H24.762H24.7624H24.7628H24.7633H24.7637H24.7641H24.7646H24.765H24.7655H24.7659H24.7663H24.7668H24.7672H24.7676H24.7681H24.7685H24.769H24.7694H24.7698H24.7703H24.7707H24.7711H24.7716H24.772H24.7724H24.7729H24.7733H24.7737H24.7742H24.7746H24.7751H24.7755H24.7759H24.7764H24.7768H24.7772H24.7777H24.7781H24.7785H24.779H24.7794H24.7798H24.7803H24.7807H24.7811H24.7816H24.782H24.7824H24.7829H24.7833H24.7837H24.7842H24.7846H24.785H24.7855H24.7859H24.7863H24.7868H24.7872H24.7876H24.7881H24.7885H24.7889H24.7893H24.7898H24.7902H24.7906H24.7911H24.7915H24.7919H24.7924H24.7928H24.7932H24.7936H24.7941H24.7945H24.7949H24.7954H24.7958H24.7962H24.7966H24.7971H24.7975H24.7979H24.7983H24.7988H24.7992H24.7996H24.8001H24.8005H24.8009H24.8013H24.8018H24.8022H24.8026H24.803H24.8035H24.8039H24.8043H24.8047H24.8052H24.8056H24.806H24.8064H24.8068H24.8073H24.8077H24.8081H24.8085H24.809H24.8094H24.8098H24.8102H24.8106H24.8111H24.8115H24.8119H24.8123H24.8127H24.8132H24.8136H24.814H24.8144H24.8148H24.8153H24.8157H24.8161H24.8165H24.8169H24.8173H24.8178H24.8182H24.8186H24.819H24.8194H24.8198H24.8202H24.8207H24.8211H24.8215H24.8219H24.8223H24.8227H24.8231H24.8236H24.824H24.8244H24.8248H24.8252H24.8256H24.826H24.8264H24.8268H24.8273H24.8277H24.8281H24.8285H24.8289H24.8293H24.8297H24.8301H24.8305H24.8309H24.8313H24.8317H24.8322H24.8326H24.833H24.8334H24.8338H24.8342H24.8346H24.835H24.8354H24.8358H24.8362H24.8366H24.837H24.8374H24.8378H24.8382H24.8386H24.839H24.8394H24.8398H24.8402H24.8406H24.841H24.8414H24.8418H24.8422H24.8426H24.843H24.8434H24.8438H24.8442H24.8446H24.845H24.8454H24.8458H24.8462H24.8466H24.847H24.8474H24.8477H24.8481H24.8485H24.8489H24.8493H24.8497H24.8501C25.2653 37.3168 25.6786 37.0233 25.7792 36.569C25.9145 36.0588 25.6203 35.5127 25.0927 35.3563L25.0927 35.3563L25.0891 35.3553C22.7627 34.7283 21.2693 33.8742 19.7056 32.3269C17.7177 30.3554 16.6334 27.7272 16.6334 24.9168C16.6334 23.2259 18.1064 21.8335 19.9501 21.8335C21.7938 21.8335 23.2668 23.2259 23.2668 24.9168C23.2668 27.7061 25.6405 29.9668 28.5501 29.9668C31.4597 29.9668 33.8334 27.7061 33.8334 24.9168C33.8334 17.6266 27.5753 11.7168 19.9334 11.7168C14.4954 11.7168 9.52424 14.764 7.28136 19.4689L7.2812 19.4693C6.5205 21.0752 6.13343 22.9143 6.13343 24.9335C6.13343 27.1842 6.5198 29.3853 7.35945 31.5856C7.53986 32.0844 8.1112 32.3333 8.61583 32.1586C9.1321 31.9799 9.38587 31.4063 9.19034 30.8969C8.19867 28.2522 8.08343 26.2215 8.08343 24.9335C8.08343 23.2191 8.41312 21.6586 9.05192 20.3319L9.05255 20.3306C10.9425 16.3041 15.2535 13.7002 19.9334 13.7002C26.5258 13.7002 31.8668 18.7413 31.8668 24.9335C31.8668 26.6244 30.3938 28.0168 28.5501 28.0168C26.7388 28.0168 25.2334 26.6235 25.2334 24.9335C25.2334 22.1442 22.8597 19.8835 19.9501 19.8835C17.0405 19.8835 14.6668 22.1442 14.6668 24.9335C14.6668 28.2731 15.9658 31.4117 18.3281 33.7403L18.3284 33.7405C20.1644 35.5429 21.9202 36.538 24.5917 37.3109Z" fill="url(#paint0_linear_1183_32326)" stroke="url(#paint1_linear_1183_32326)" stroke-width="0.3"/>
<defs>
<linearGradient id="paint0_linear_1183_32326" x1="39.6" y1="23.5728" x2="3.93254" y2="23.5453" gradientUnits="userSpaceOnUse">
<stop stop-color="#0129E3"/>
<stop offset="1" stop-color="#00036A"/>
</linearGradient>
<linearGradient id="paint1_linear_1183_32326" x1="39.6" y1="23.5728" x2="3.93254" y2="23.5453" gradientUnits="userSpaceOnUse">
<stop stop-color="#0129E3"/>
<stop offset="1" stop-color="#00036A"/>
</linearGradient>
</defs>
</svg>
