<svg width="40" height="42" viewBox="0 0 40 42" fill="none" xmlns="http://www.w3.org/2000/svg">
<path d="M40.0001 21.4589C40.0001 20.1137 39.8809 18.8365 39.6765 17.5935H20.4343V25.2733H31.4518C30.9579 27.7935 29.5105 29.9221 27.3649 31.3695V36.4781H33.9379C37.7864 32.9191 40.0001 27.6743 40.0001 21.4589Z" fill="#4285F4"/>
<path d="M20.4348 41.4344C25.952 41.4344 30.5667 39.5953 33.9384 36.4791L27.3654 31.3706C25.5263 32.5966 23.1934 33.3459 20.4348 33.3459C15.1049 33.3459 10.5923 29.7529 8.97461 24.8997H2.19727V30.1615C5.55188 36.8367 12.4484 41.4344 20.4348 41.4344Z" fill="#34A853"/>
<path d="M8.97378 24.8995C8.54806 23.6735 8.32669 22.3623 8.32669 21C8.32669 19.6377 8.56509 18.3266 8.97378 17.1005V11.8387H2.19643C0.800094 14.5973 -0.000244141 17.6965 -0.000244141 21C-0.000244141 24.3035 0.800094 27.4027 2.19643 30.1614L8.97378 24.8995Z" fill="#FBBC05"/>
<path d="M20.4348 8.65412C23.4488 8.65412 26.1393 9.69286 28.2679 11.7193L34.0916 5.8955C30.5667 2.59198 25.952 0.565582 20.4348 0.565582C12.4484 0.565582 5.55188 5.16328 2.19727 11.8385L8.97461 17.1003C10.5923 12.2471 15.1049 8.65412 20.4348 8.65412Z" fill="#F31B1B"/>
</svg>
