<svg width="22" height="21" viewBox="0 0 22 21" fill="none" xmlns="http://www.w3.org/2000/svg">
<path d="M12.0331 0.208984C13.1637 0.211999 13.7375 0.218029 14.2329 0.232098L14.4279 0.239133C14.653 0.247172 14.8751 0.257222 15.1434 0.269281C16.2127 0.319529 16.9423 0.48836 17.5824 0.736582C18.2457 0.991839 18.8044 1.33754 19.3632 1.89529C19.8742 2.39766 20.2696 3.00534 20.5219 3.67606C20.7701 4.31621 20.939 5.0458 20.9892 6.11607C21.0013 6.38339 21.0113 6.60548 21.0193 6.83159L21.0254 7.02655C21.0405 7.52099 21.0465 8.09481 21.0485 9.22538L21.0495 9.97507V11.2916C21.052 12.0246 21.0443 12.7576 21.0264 13.4904L21.0204 13.6853C21.0123 13.9115 21.0023 14.1335 20.9902 14.4009C20.94 15.4711 20.7691 16.1997 20.5219 16.8409C20.2703 17.512 19.8748 18.1198 19.3632 18.6216C18.8607 19.1325 18.253 19.5279 17.5824 19.7803C16.9423 20.0286 16.2127 20.1974 15.1434 20.2477C14.905 20.2589 14.6664 20.2689 14.4279 20.2778L14.2329 20.2838C13.7375 20.2979 13.1637 20.3049 12.0331 20.3069L11.2834 20.3079H9.96793C9.23458 20.3105 8.50123 20.3028 7.7681 20.2848L7.57314 20.2788C7.33458 20.2698 7.09606 20.2594 6.85762 20.2477C5.78835 20.1974 5.05876 20.0286 4.4176 19.7803C3.74697 19.5285 3.13953 19.133 2.63784 18.6216C2.12637 18.1195 1.7306 17.5117 1.47813 16.8409C1.22991 16.2007 1.06108 15.4711 1.01083 14.4009C0.999632 14.1624 0.989582 13.9239 0.980679 13.6853L0.975655 13.4904C0.957136 12.7576 0.94876 12.0246 0.950531 11.2916V9.22538C0.947726 8.49237 0.955097 7.75936 0.97264 7.02655L0.979675 6.83159C0.987714 6.60548 0.997764 6.38339 1.00982 6.11607C1.06007 5.0458 1.2289 4.31721 1.47712 3.67606C1.72948 3.00465 2.12604 2.39678 2.63884 1.89529C3.14041 1.38425 3.74745 0.988811 4.4176 0.736582C5.05876 0.48836 5.78735 0.319529 6.85762 0.269281C7.12493 0.257222 7.34803 0.247172 7.57314 0.239133L7.7681 0.233103C8.5009 0.215248 9.23391 0.207543 9.96693 0.209989L12.0331 0.208984ZM11 5.23373C9.66737 5.23373 8.38931 5.76312 7.44698 6.70544C6.50466 7.64776 5.97527 8.92582 5.97527 10.2585C5.97527 11.5911 6.50466 12.8692 7.44698 13.8115C8.38931 14.7538 9.66737 15.2832 11 15.2832C12.3327 15.2832 13.6107 14.7538 14.553 13.8115C15.4954 12.8692 16.0248 11.5911 16.0248 10.2585C16.0248 8.92582 15.4954 7.64776 14.553 6.70544C13.6107 5.76312 12.3327 5.23373 11 5.23373ZM11 7.24362C11.3959 7.24356 11.788 7.32147 12.1538 7.47292C12.5196 7.62437 12.852 7.84639 13.132 8.12629C13.412 8.4062 13.6341 8.73852 13.7857 9.10427C13.9372 9.47002 14.0153 9.86205 14.0154 10.258C14.0154 10.6539 13.9375 11.0459 13.7861 11.4117C13.6346 11.7775 13.4126 12.1099 13.1327 12.3899C12.8528 12.6699 12.5205 12.8921 12.1547 13.0436C11.789 13.1952 11.3969 13.2732 11.001 13.2733C10.2014 13.2733 9.43459 12.9557 8.8692 12.3903C8.30381 11.8249 7.98617 11.0581 7.98617 10.2585C7.98617 9.45888 8.30381 8.69204 8.8692 8.12665C9.43459 7.56126 10.2014 7.24362 11.001 7.24362M16.277 3.7263C15.9438 3.7263 15.6243 3.85865 15.3887 4.09423C15.1532 4.32981 15.0208 4.64933 15.0208 4.98249C15.0208 5.31565 15.1532 5.63516 15.3887 5.87075C15.6243 6.10633 15.9438 6.23867 16.277 6.23867C16.6102 6.23867 16.9297 6.10633 17.1653 5.87075C17.4008 5.63516 17.5332 5.31565 17.5332 4.98249C17.5332 4.64933 17.4008 4.32981 17.1653 4.09423C16.9297 3.85865 16.6102 3.7263 16.277 3.7263Z" fill="#1B212B"/>
</svg>
