<svg width="85" height="85" viewBox="0 0 85 85" fill="none" xmlns="http://www.w3.org/2000/svg">
<path d="M25.848 49.3474V38.7874H23.592V37.4274H27.432V49.3474H25.848ZM37.283 49.5394C36.451 49.5394 35.699 49.3474 35.027 48.9634C34.355 48.5688 33.8217 48.0301 33.427 47.3474C33.0323 46.6648 32.835 45.8914 32.835 45.0274C32.835 44.1634 33.027 43.3954 33.411 42.7234C33.8057 42.0514 34.339 41.5181 35.011 41.1234C35.683 40.7288 36.4403 40.5314 37.283 40.5314C38.115 40.5314 38.867 40.7288 39.539 41.1234C40.211 41.5074 40.739 42.0354 41.123 42.7074C41.5177 43.3794 41.715 44.1528 41.715 45.0274C41.715 45.9021 41.5123 46.6808 41.107 47.3634C40.7017 48.0354 40.163 48.5688 39.491 48.9634C38.8297 49.3474 38.0937 49.5394 37.283 49.5394ZM37.283 48.0994C37.8163 48.0994 38.2963 47.9661 38.723 47.6994C39.1603 47.4328 39.5017 47.0648 39.747 46.5954C40.003 46.1261 40.131 45.6034 40.131 45.0274C40.131 44.4408 40.003 43.9234 39.747 43.4754C39.5017 43.0168 39.1603 42.6541 38.723 42.3874C38.2963 42.1101 37.8163 41.9714 37.283 41.9714C36.739 41.9714 36.2483 42.1101 35.811 42.3874C35.3843 42.6541 35.043 43.0168 34.787 43.4754C34.531 43.9234 34.403 44.4408 34.403 45.0274C34.403 45.6034 34.531 46.1261 34.787 46.5954C35.043 47.0648 35.3843 47.4328 35.811 47.6994C36.2483 47.9661 36.739 48.0994 37.283 48.0994ZM44.3821 49.3474V42.1474H42.7341V40.7234H44.3821V40.1154C44.3821 39.4968 44.5155 38.9741 44.7821 38.5474C45.0595 38.1208 45.4221 37.7954 45.8701 37.5714C46.3288 37.3474 46.8355 37.2354 47.3901 37.2354C47.5075 37.2354 47.6355 37.2461 47.7741 37.2674C47.9235 37.2781 48.0461 37.2941 48.1421 37.3154V38.6434C48.0568 38.6221 47.9555 38.6114 47.8381 38.6114C47.7208 38.6008 47.6301 38.5954 47.5661 38.5954C47.0755 38.5954 46.6701 38.7128 46.3501 38.9474C46.0408 39.1821 45.8861 39.5714 45.8861 40.1154V40.7234H47.9341V42.1474H45.8861V49.3474H44.3821ZM56.3071 49.5394C55.6778 49.5394 55.0911 49.4274 54.5471 49.2034C54.0031 48.9794 53.5338 48.6648 53.1391 48.2594C52.7445 47.8434 52.4511 47.3528 52.2591 46.7874L53.5871 46.2434C53.8111 46.8408 54.1631 47.3048 54.6431 47.6354C55.1231 47.9661 55.6778 48.1314 56.3071 48.1314C56.7978 48.1314 57.2351 48.0354 57.6191 47.8434C58.0031 47.6514 58.3018 47.3741 58.5151 47.0114C58.7391 46.6488 58.8511 46.2114 58.8511 45.6994C58.8511 45.1768 58.7391 44.7394 58.5151 44.3874C58.3018 44.0248 58.0031 43.7474 57.6191 43.5554C57.2351 43.3634 56.7925 43.2674 56.2911 43.2674C56.1311 43.2674 55.9551 43.2781 55.7631 43.2994C55.5818 43.3208 55.4271 43.3528 55.2991 43.3954L54.9631 42.6754L58.1471 38.7874H52.8671V37.4274H59.9231V38.7394L56.8831 42.4834L56.7871 42.0674C57.5018 42.0888 58.1311 42.2541 58.6751 42.5634C59.2191 42.8728 59.6458 43.2941 59.9551 43.8274C60.2645 44.3501 60.4191 44.9634 60.4191 45.6674C60.4191 46.3928 60.2431 47.0488 59.8911 47.6354C59.5391 48.2221 59.0538 48.6861 58.4351 49.0274C57.8165 49.3688 57.1071 49.5394 56.3071 49.5394Z" fill="#1B212B"/>
<circle opacity="0.3" cx="42.4995" cy="42.3459" r="30.8325" stroke="#00026F" stroke-width="7"/>
<path d="M39.8141 11.6378C39.6453 9.70877 41.0747 7.98932 43.0109 8.01809C47.7784 8.08893 52.4925 9.15243 56.8475 11.1555C62.2674 13.6484 66.9443 17.5106 70.4171 22.3613C73.8899 27.2121 76.0388 32.8841 76.6521 38.8182C77.1448 43.5864 76.6324 48.3917 75.163 52.9277C74.5663 54.7699 72.4779 55.5689 70.7062 54.7875C68.9344 54.006 68.1554 51.9398 68.7036 50.0826C69.7093 46.6759 70.0442 43.0945 69.6768 39.5391C69.1888 34.8169 67.4788 30.3034 64.7153 26.4434C61.9518 22.5834 58.2302 19.5101 53.9172 17.5263C50.6698 16.0327 47.1716 15.1956 43.6226 15.0498C41.6878 14.9702 39.9828 13.5669 39.8141 11.6378Z" fill="#010ABC"/>
</svg>
