<svg width="85" height="85" viewBox="0 0 85 85" fill="none" xmlns="http://www.w3.org/2000/svg">
<path d="M25.848 49.3477V38.7877H23.592V37.4277H27.432V49.3477H25.848ZM37.283 49.5397C36.451 49.5397 35.699 49.3477 35.027 48.9637C34.355 48.569 33.8217 48.0303 33.427 47.3477C33.0323 46.665 32.835 45.8917 32.835 45.0277C32.835 44.1637 33.027 43.3957 33.411 42.7237C33.8057 42.0517 34.339 41.5183 35.011 41.1237C35.683 40.729 36.4403 40.5317 37.283 40.5317C38.115 40.5317 38.867 40.729 39.539 41.1237C40.211 41.5077 40.739 42.0357 41.123 42.7077C41.5177 43.3797 41.715 44.153 41.715 45.0277C41.715 45.9023 41.5123 46.681 41.107 47.3637C40.7017 48.0357 40.163 48.569 39.491 48.9637C38.8297 49.3477 38.0937 49.5397 37.283 49.5397ZM37.283 48.0997C37.8163 48.0997 38.2963 47.9663 38.723 47.6997C39.1603 47.433 39.5017 47.065 39.747 46.5957C40.003 46.1263 40.131 45.6037 40.131 45.0277C40.131 44.441 40.003 43.9237 39.747 43.4757C39.5017 43.017 39.1603 42.6543 38.723 42.3877C38.2963 42.1103 37.8163 41.9717 37.283 41.9717C36.739 41.9717 36.2483 42.1103 35.811 42.3877C35.3843 42.6543 35.043 43.017 34.787 43.4757C34.531 43.9237 34.403 44.441 34.403 45.0277C34.403 45.6037 34.531 46.1263 34.787 46.5957C35.043 47.065 35.3843 47.433 35.811 47.6997C36.2483 47.9663 36.739 48.0997 37.283 48.0997ZM44.3821 49.3477V42.1477H42.7341V40.7237H44.3821V40.1157C44.3821 39.497 44.5155 38.9743 44.7821 38.5477C45.0595 38.121 45.4221 37.7957 45.8701 37.5717C46.3288 37.3477 46.8355 37.2357 47.3901 37.2357C47.5075 37.2357 47.6355 37.2463 47.7741 37.2677C47.9235 37.2783 48.0461 37.2943 48.1421 37.3157V38.6437C48.0568 38.6223 47.9555 38.6117 47.8381 38.6117C47.7208 38.601 47.6301 38.5957 47.5661 38.5957C47.0755 38.5957 46.6701 38.713 46.3501 38.9477C46.0408 39.1823 45.8861 39.5717 45.8861 40.1157V40.7237H47.9341V42.1477H45.8861V49.3477H44.3821ZM56.3071 49.5397C55.6778 49.5397 55.0911 49.4277 54.5471 49.2037C54.0031 48.9797 53.5338 48.665 53.1391 48.2597C52.7445 47.8437 52.4511 47.353 52.2591 46.7877L53.5871 46.2437C53.8111 46.841 54.1631 47.305 54.6431 47.6357C55.1231 47.9663 55.6778 48.1317 56.3071 48.1317C56.7978 48.1317 57.2351 48.0357 57.6191 47.8437C58.0031 47.6517 58.3018 47.3743 58.5151 47.0117C58.7391 46.649 58.8511 46.2117 58.8511 45.6997C58.8511 45.177 58.7391 44.7397 58.5151 44.3877C58.3018 44.025 58.0031 43.7477 57.6191 43.5557C57.2351 43.3637 56.7925 43.2677 56.2911 43.2677C56.1311 43.2677 55.9551 43.2783 55.7631 43.2997C55.5818 43.321 55.4271 43.353 55.2991 43.3957L54.9631 42.6757L58.1471 38.7877H52.8671V37.4277H59.9231V38.7397L56.8831 42.4837L56.7871 42.0677C57.5018 42.089 58.1311 42.2543 58.6751 42.5637C59.2191 42.873 59.6458 43.2943 59.9551 43.8277C60.2645 44.3503 60.4191 44.9637 60.4191 45.6677C60.4191 46.393 60.2431 47.049 59.8911 47.6357C59.5391 48.2223 59.0538 48.6863 58.4351 49.0277C57.8165 49.369 57.1071 49.5397 56.3071 49.5397Z" fill="white"/>
<circle opacity="0.3" cx="42.4995" cy="42.3462" r="30.8325" stroke="#09105F" stroke-width="7"/>
<path d="M39.8141 11.6381C39.6453 9.70901 41.0747 7.98957 43.0109 8.01834C47.7784 8.08918 52.4925 9.15267 56.8475 11.1558C62.2674 13.6487 66.9443 17.5108 70.4171 22.3616C73.8899 27.2123 76.0388 32.8843 76.6521 38.8185C77.1448 43.5867 76.6324 48.392 75.163 52.9279C74.5663 54.7701 72.4779 55.5692 70.7062 54.7877C68.9344 54.0063 68.1554 51.9401 68.7036 50.0829C69.7093 46.6762 70.0442 43.0948 69.6768 39.5393C69.1888 34.8172 67.4788 30.3037 64.7153 26.4437C61.9518 22.5836 58.2302 19.5103 53.9172 17.5266C50.6698 16.033 47.1716 15.1958 43.6226 15.05C41.6878 14.9705 39.9828 13.5671 39.8141 11.6381Z" fill="white"/>
</svg>
