<svg width="40" height="41" viewBox="0 0 40 41" fill="none" xmlns="http://www.w3.org/2000/svg">
<rect x="2.16528" y="9.25" width="35.0845" height="23.292" rx="3.75" stroke="url(#paint0_linear_1186_10284)" stroke-width="2.5"/>
<path d="M10.4993 23.792L9.57128 23.12L10.9473 21.296L8.91528 20.608L9.26728 19.52L11.3153 20.192V18H12.4673V20.192L14.5153 19.52L14.8673 20.608L12.8353 21.296L14.2113 23.12L13.2833 23.792L11.8913 21.968L10.4993 23.792Z" fill="url(#paint1_linear_1186_10284)"/>
<path d="M18.3155 23.792L17.3875 23.12L18.7635 21.296L16.7315 20.608L17.0835 19.52L19.1315 20.192V18H20.2835V20.192L22.3315 19.52L22.6835 20.608L20.6515 21.296L22.0275 23.12L21.0995 23.792L19.7075 21.968L18.3155 23.792Z" fill="url(#paint2_linear_1186_10284)"/>
<path d="M26.1318 23.792L25.2038 23.12L26.5798 21.296L24.5478 20.608L24.8998 19.52L26.9478 20.192V18H28.0998V20.192L30.1478 19.52L30.4998 20.608L28.4678 21.296L29.8438 23.12L28.9158 23.792L27.5238 21.968L26.1318 23.792Z" fill="url(#paint3_linear_1186_10284)"/>
<path d="M10.4993 23.792L9.57128 23.12L10.9473 21.296L8.91528 20.608L9.26728 19.52L11.3153 20.192V18H12.4673V20.192L14.5153 19.52L14.8673 20.608L12.8353 21.296L14.2113 23.12L13.2833 23.792L11.8913 21.968L10.4993 23.792Z" stroke="url(#paint4_linear_1186_10284)" stroke-width="0.56"/>
<path d="M18.3155 23.792L17.3875 23.12L18.7635 21.296L16.7315 20.608L17.0835 19.52L19.1315 20.192V18H20.2835V20.192L22.3315 19.52L22.6835 20.608L20.6515 21.296L22.0275 23.12L21.0995 23.792L19.7075 21.968L18.3155 23.792Z" stroke="url(#paint5_linear_1186_10284)" stroke-width="0.56"/>
<path d="M26.1318 23.792L25.2038 23.12L26.5798 21.296L24.5478 20.608L24.8998 19.52L26.9478 20.192V18H28.0998V20.192L30.1478 19.52L30.4998 20.608L28.4678 21.296L29.8438 23.12L28.9158 23.792L27.5238 21.968L26.1318 23.792Z" stroke="url(#paint6_linear_1186_10284)" stroke-width="0.56"/>
<defs>
<linearGradient id="paint0_linear_1186_10284" x1="44.2865" y1="23.2735" x2="-0.427789" y2="23.2176" gradientUnits="userSpaceOnUse">
<stop stop-color="#0129E3"/>
<stop offset="1" stop-color="#00036A"/>
</linearGradient>
<linearGradient id="paint1_linear_1186_10284" x1="33.823" y1="21.4299" x2="8.14419" y2="21.3478" gradientUnits="userSpaceOnUse">
<stop stop-color="#0129E3"/>
<stop offset="1" stop-color="#00036A"/>
</linearGradient>
<linearGradient id="paint2_linear_1186_10284" x1="33.823" y1="21.4299" x2="8.14419" y2="21.3478" gradientUnits="userSpaceOnUse">
<stop stop-color="#0129E3"/>
<stop offset="1" stop-color="#00036A"/>
</linearGradient>
<linearGradient id="paint3_linear_1186_10284" x1="33.823" y1="21.4299" x2="8.14419" y2="21.3478" gradientUnits="userSpaceOnUse">
<stop stop-color="#0129E3"/>
<stop offset="1" stop-color="#00036A"/>
</linearGradient>
<linearGradient id="paint4_linear_1186_10284" x1="33.823" y1="21.4299" x2="8.14419" y2="21.3478" gradientUnits="userSpaceOnUse">
<stop stop-color="#0129E3"/>
<stop offset="1" stop-color="#00036A"/>
</linearGradient>
<linearGradient id="paint5_linear_1186_10284" x1="33.823" y1="21.4299" x2="8.14419" y2="21.3478" gradientUnits="userSpaceOnUse">
<stop stop-color="#0129E3"/>
<stop offset="1" stop-color="#00036A"/>
</linearGradient>
<linearGradient id="paint6_linear_1186_10284" x1="33.823" y1="21.4299" x2="8.14419" y2="21.3478" gradientUnits="userSpaceOnUse">
<stop stop-color="#0129E3"/>
<stop offset="1" stop-color="#00036A"/>
</linearGradient>
</defs>
</svg>
