<svg width="56" height="57" viewBox="0 0 56 57" fill="none" xmlns="http://www.w3.org/2000/svg">
<path fill-rule="evenodd" clip-rule="evenodd" d="M27.6579 0.759277C20.3264 0.766803 13.2973 3.68189 8.11229 8.86511C2.92729 14.0483 0.00979507 21.0765 -0.000244141 28.4079C0.0122906 35.7395 2.93029 42.7671 8.11448 47.9513C13.2987 53.1355 20.3263 56.0535 27.6579 56.066C34.9877 56.0535 42.0134 53.1349 47.1946 47.9502C52.3757 42.7654 55.2895 35.7377 55.297 28.4079C55.2895 21.0774 52.3741 14.0492 47.1906 8.86569C42.0071 3.6822 34.9884 0.766807 27.6579 0.759277ZM27.62 15.8067C27.9563 15.8029 28.2901 15.8666 28.6014 15.9941C28.9126 16.1216 29.1952 16.3104 29.4322 16.5491C29.6691 16.7879 29.8558 17.0718 29.981 17.384C30.1062 17.6963 30.1674 18.0305 30.161 18.3668V25.8953H37.6895C38.3559 25.8953 38.995 26.16 39.4662 26.6312C39.9374 27.1024 40.2022 27.7415 40.2022 28.4079C40.2022 29.0743 39.9374 29.7134 39.4662 30.1846C38.995 30.6558 38.3559 30.9206 37.6895 30.9206H30.161V38.449C30.161 39.1154 29.8963 39.7545 29.4251 40.2258C28.9539 40.697 28.3148 40.9617 27.6484 40.9617C26.982 40.9617 26.3429 40.697 25.8717 40.2258C25.4005 39.7545 25.1357 39.1154 25.1357 38.449V30.9301H17.5978C16.9427 30.944 16.308 30.7025 15.8279 30.2566C15.3478 29.8108 15.06 29.1956 15.0255 28.5413C14.991 27.887 15.2125 27.245 15.643 26.7511C16.0736 26.2572 16.6794 25.9503 17.3323 25.8953C17.4207 25.8906 17.5094 25.8906 17.5978 25.8953H25.1168V18.3668C25.1105 18.0345 25.1702 17.7042 25.2925 17.3951C25.4148 17.086 25.5972 16.8042 25.8291 16.5661C26.061 16.328 26.3379 16.1383 26.6437 16.0079C26.9495 15.8776 27.2876 15.8092 27.62 15.8067Z" fill="white"/>
</svg>
