<svg width="53" height="58" viewBox="0 0 53 58" fill="none" xmlns="http://www.w3.org/2000/svg">
<path d="M26.1533 29.9559C33.8647 29.9559 40.136 21.7722 40.136 14.0621C40.136 6.35137 33.8647 0.0774536 26.1533 0.0774536C18.4432 0.0774536 12.1706 6.35073 12.1706 14.0615C12.1712 21.7722 18.4439 29.9559 26.1533 29.9559ZM36.6512 30.0986C33.8477 32.2398 30.417 33.3983 26.8893 33.3952H25.4173C21.8896 33.3984 18.4589 32.2399 15.6554 30.0986C6.79907 31.5303 0.0361938 39.2071 0.0361938 48.4666C0.0361938 53.5533 11.729 57.6774 26.1533 57.6774C40.5776 57.6774 52.2704 53.5533 52.2704 48.4666C52.2704 39.2071 45.5069 31.5303 36.6512 30.0986Z" fill="white"/>
</svg>
