<svg width="65" height="65" viewBox="0 0 65 65" fill="none" xmlns="http://www.w3.org/2000/svg">
<path d="M9.28603 2.54016C8.75844 2.54016 8.25246 2.74975 7.8794 3.12281C7.50634 3.49587 7.29675 4.00185 7.29675 4.52944V40.8263C7.29691 44.0076 8.22675 47.1195 9.97194 49.7794C11.7171 52.4393 14.2016 54.5312 17.1198 55.7979L31.3054 61.9547C31.7066 62.1289 32.1393 62.2187 32.5766 62.2187C33.014 62.2187 33.4467 62.1289 33.8479 61.9547L48.0335 55.7979C50.9519 54.5315 53.4365 52.4396 55.1818 49.7797C56.927 47.1198 57.8567 44.0077 57.8565 40.8263V4.52944C57.8565 4.00185 57.647 3.49587 57.2739 3.12281C56.9008 2.74975 56.3949 2.54016 55.8673 2.54016H9.28603Z" fill="white"/>
<path d="M32.973 58.8535C32.848 58.9077 32.7132 58.9357 32.577 58.9357C32.4407 58.9357 32.3059 58.9077 32.181 58.8535L18.391 52.8688C16.6263 52.1054 15.052 50.9617 13.7806 49.5193C11.6208 47.0772 10.4901 43.8926 10.4901 40.6325V6.72816C10.4901 6.46437 10.5949 6.21138 10.7814 6.02484C10.968 5.83831 11.221 5.73352 11.4848 5.73352H53.6687C53.9325 5.73352 54.1855 5.83831 54.372 6.02484C54.5585 6.21138 54.6633 6.46437 54.6633 6.72816V40.6329C54.6633 43.8944 53.5317 47.0802 51.3701 49.5225C50.099 50.9636 48.5255 52.1063 46.7619 52.869L32.973 58.8535Z" fill="white"/>
<path d="M32.5767 62.7148C32.0712 62.7154 31.571 62.6119 31.1073 62.4107L16.9218 56.2541C14.7176 55.3011 12.7447 53.8842 11.1374 52.1C8.34289 49.0104 6.79678 44.9922 6.79956 40.8262V4.52957C6.79956 3.15846 7.91505 2.04297 9.28616 2.04297H55.8674C57.2385 2.04297 58.354 3.15846 58.354 4.52957V40.8262C58.3568 44.9922 56.8107 49.0104 54.0161 52.1C52.4089 53.8842 50.436 55.3011 48.2318 56.2541L34.0462 62.4107C33.5825 62.6119 33.0822 62.7154 32.5767 62.7148ZM9.28592 3.03761C8.4631 3.03761 7.79396 3.70675 7.79396 4.52957V40.8262C7.79126 44.7458 9.24602 48.5263 11.8755 51.4331C13.3875 53.1121 15.2438 54.4452 17.3179 55.3417L31.5034 61.4983C31.8423 61.6448 32.2076 61.7203 32.5768 61.7203C32.946 61.7203 33.3112 61.6448 33.6501 61.4983L47.8357 55.3417C49.9096 54.4452 51.7659 53.112 53.2779 51.4331C55.9073 48.5263 57.362 44.7458 57.3594 40.8262V4.52957C57.3594 3.70675 56.6902 3.03761 55.8674 3.03761H9.28592Z" fill="white"/>
<path d="M32.5771 59.4324C32.3728 59.4326 32.1706 59.3908 31.983 59.3096L18.1931 53.3248C16.3615 52.5329 14.7275 51.3459 13.4081 49.8488C11.2058 47.3587 9.9928 44.0856 9.9928 40.6322V6.72817C9.9928 5.90535 10.6619 5.23621 11.4848 5.23621H53.6689C54.4917 5.23621 55.1609 5.90535 55.1609 6.72817V40.633C55.1609 44.0876 53.9469 47.3617 51.7428 49.8523C50.4238 51.3479 48.7908 52.5338 46.9603 53.3251L33.1711 59.3098C32.9836 59.3909 32.7814 59.4326 32.5771 59.4324ZM11.4848 6.23085C11.2105 6.23085 10.9874 6.45389 10.9874 6.72817V40.6325C10.9874 43.8429 12.1116 46.8818 14.1531 49.1901C15.3764 50.578 16.8912 51.6784 18.5892 52.4127L32.3792 58.3975C32.505 58.4522 32.6495 58.4519 32.775 58.3975L46.5642 52.4127C48.2612 51.6789 49.7752 50.5794 50.9981 49.1928C53.0411 46.8843 54.1662 43.8444 54.1662 40.633V6.72817C54.1662 6.45389 53.9432 6.23085 53.6689 6.23085H11.4848Z" fill="white"/>
<path d="M32.5763 46.9621C42.0724 46.9621 49.7706 39.264 49.7706 29.7679C49.7706 20.2717 42.0724 12.5736 32.5763 12.5736C23.0802 12.5736 15.3821 20.2717 15.3821 29.7679C15.3821 39.264 23.0802 46.9621 32.5763 46.9621Z" fill="white"/>
<path d="M15.3821 29.7837L20.276 26.2281L18.308 20.1706C16.4606 22.9115 15.3821 26.2139 15.3821 29.7679V29.7837ZM26.95 13.5162L32.5763 17.6041L38.2027 13.5162C36.3929 12.8904 34.4912 12.5718 32.5763 12.5736C30.6614 12.5718 28.7597 12.8904 26.95 13.5162ZM25.1235 40.5256L18.9942 40.3116C20.9582 42.8376 23.6106 44.8018 26.6705 45.9209L25.1235 40.5256ZM38.4831 45.9209C41.5427 44.8015 44.1948 42.8376 46.1584 40.3116L40.0301 40.5256L38.4831 45.9209ZM44.8422 26.2278L49.7703 29.8083L49.7709 29.808C49.7791 26.2237 48.6904 22.8941 46.8216 20.1358L44.8422 26.2278ZM32.5763 23.049L25.7627 27.9993L28.3652 36.0094H36.7875L39.39 27.9993L32.5763 23.049Z" fill="#010ABC"/>
<path d="M36.7875 36.6416H28.3651C28.2316 36.6416 28.1016 36.5993 27.9935 36.5208C27.8855 36.4424 27.8052 36.3317 27.7639 36.2047L25.1614 28.1949C25.1202 28.0679 25.1202 27.9312 25.1615 27.8042C25.2028 27.6772 25.2832 27.5666 25.3912 27.4881L32.2049 22.5376C32.3129 22.459 32.443 22.4167 32.5766 22.4167C32.7102 22.4167 32.8403 22.459 32.9483 22.5376L39.762 27.4881C39.9836 27.649 40.0762 27.9345 39.9918 28.1949L37.3893 36.2047C37.3476 36.3315 37.267 36.442 37.159 36.5204C37.0509 36.5988 36.9209 36.6412 36.7875 36.6416ZM28.8244 35.3772H36.3278L38.6465 28.2411L32.5763 23.8305L26.5058 28.2411L28.8244 35.3772Z" fill="#010ABC"/>
<path d="M14.6 29.7676C14.6 39.6804 22.6643 47.7444 32.5768 47.7444C42.4892 47.7444 50.5536 39.6801 50.5536 29.7676C50.5536 19.8552 42.4896 11.7912 32.5768 11.7912C22.664 11.7912 14.6 19.8552 14.6 29.7676ZM16.1644 29.7676C16.1644 20.7182 23.527 13.3556 32.5768 13.3556C41.6265 13.3556 48.9891 20.7182 48.9891 29.7676C48.9891 38.8174 41.6265 46.18 32.5768 46.18C23.527 46.18 16.1644 38.8174 16.1644 29.7676Z" fill="#010ABC" stroke="#010ABC" stroke-width="0.3"/>
<path d="M49.6782 30.3739C49.5449 30.3738 49.415 30.3316 49.3071 30.2532L44.4701 26.739C44.362 26.6606 44.2816 26.5499 44.2403 26.423C44.199 26.296 44.199 26.1592 44.2403 26.0322L46.1653 20.1074C46.2199 19.9514 46.3334 19.8229 46.4816 19.7495C46.6297 19.6761 46.8007 19.6636 46.958 19.7147C47.1152 19.7658 47.2462 19.8765 47.3228 20.023C47.3995 20.1695 47.4158 20.3401 47.3681 20.4985L45.585 25.9864L50.05 29.2306C50.1579 29.3091 50.2381 29.4197 50.2793 29.5467C50.3205 29.6736 50.3204 29.8103 50.2791 29.9372C50.2379 30.0641 50.1575 30.1747 50.0496 30.2531C49.9417 30.3316 49.8117 30.3739 49.6782 30.3739Z" fill="#010ABC"/>
<path d="M39.3902 28.6319C39.2398 28.6316 39.0944 28.5778 38.9801 28.48C38.8658 28.3822 38.7901 28.2469 38.7666 28.0983C38.7431 27.9497 38.7733 27.7976 38.8517 27.6693C38.9302 27.541 39.0519 27.4449 39.1949 27.3981L44.647 25.6267C44.8065 25.5748 44.9801 25.5885 45.1296 25.6646C45.279 25.7407 45.3921 25.8731 45.4439 26.0326C45.4958 26.1921 45.4822 26.3656 45.406 26.5151C45.3299 26.6645 45.1976 26.7776 45.0381 26.8295L39.5859 28.6009C39.5227 28.6215 39.4566 28.6319 39.3902 28.6319ZM38.5121 46.4546C38.4141 46.4546 38.3175 46.4319 38.2299 46.3882C38.1422 46.3445 38.0659 46.281 38.0069 46.2028C37.948 46.1246 37.908 46.0338 37.8902 45.9374C37.8724 45.8411 37.8772 45.742 37.9042 45.6479L39.4231 40.3512C39.4599 40.2228 39.5363 40.1094 39.6416 40.0272C39.7468 39.9449 39.8754 39.8981 40.0088 39.8935L45.9895 39.6845C46.3366 39.6782 46.6312 39.9453 46.6436 40.2943C46.6494 40.4618 46.5884 40.6248 46.474 40.7474C46.3597 40.87 46.2013 40.9422 46.0338 40.948L40.5121 41.1408L39.1199 45.9959C39.082 46.1279 39.0023 46.244 38.8926 46.3268C38.783 46.4095 38.6494 46.4543 38.5121 46.4546Z" fill="#010ABC"/>
<path d="M40.0305 41.1577C39.9301 41.1578 39.8311 41.1339 39.7417 41.0881C39.6523 41.0423 39.5751 40.9759 39.5165 40.8943L36.2736 36.3782C36.2244 36.3108 36.1889 36.2343 36.1694 36.1531C36.1499 36.072 36.1466 35.9878 36.1598 35.9054C36.1729 35.8229 36.2023 35.7439 36.2462 35.6729C36.29 35.6019 36.3475 35.5403 36.4153 35.4916C36.4831 35.4429 36.5599 35.4081 36.6412 35.3893C36.7225 35.3704 36.8067 35.3678 36.889 35.3817C36.9713 35.3956 37.0501 35.4256 37.1207 35.47C37.1914 35.5145 37.2525 35.5725 37.3006 35.6407L40.5436 40.1569C40.6113 40.2513 40.6517 40.3626 40.6604 40.4785C40.669 40.5944 40.6455 40.7104 40.5925 40.8139C40.5395 40.9173 40.459 41.0041 40.3598 41.0648C40.2607 41.1254 40.1467 41.1576 40.0305 41.1577ZM25.1239 41.158L25.1015 41.1577L24.8533 41.1488L19.0768 40.9471C18.9938 40.9442 18.9123 40.925 18.8367 40.8906C18.7611 40.8561 18.6931 40.8071 18.6365 40.7464C18.5799 40.6857 18.5358 40.6144 18.5067 40.5366C18.4776 40.4588 18.4642 40.3761 18.4671 40.2931C18.47 40.2101 18.4892 40.1285 18.5236 40.053C18.5581 39.9774 18.6071 39.9094 18.6678 39.8528C18.7285 39.7962 18.7998 39.7521 18.8776 39.723C18.9554 39.6939 19.0381 39.6804 19.1211 39.6834L24.9023 39.885L25.1457 39.8936C25.3134 39.8965 25.4731 39.9658 25.5896 40.0864C25.7061 40.207 25.7699 40.369 25.767 40.5367C25.7642 40.7043 25.6948 40.864 25.5742 40.9805C25.4536 41.097 25.2916 41.1609 25.1239 41.158Z" fill="#010ABC"/>
<path d="M26.5741 46.2153C26.4368 46.2152 26.3034 46.1704 26.1939 46.0878C26.0843 46.0052 26.0046 45.8891 25.9668 45.7572L24.5168 40.6999C24.4905 40.6082 24.4853 40.5117 24.5016 40.4177C24.5178 40.3237 24.5551 40.2346 24.6107 40.1571L27.8524 35.6406C27.9501 35.5044 28.098 35.4125 28.2635 35.3853C28.4289 35.3581 28.5984 35.3978 28.7346 35.4955C28.8709 35.5933 28.9627 35.7411 28.9899 35.9066C29.0171 36.072 28.9775 36.2415 28.8797 36.3778L25.8167 40.6455L27.1822 45.4086C27.2093 45.5027 27.2141 45.6019 27.1962 45.6982C27.1784 45.7946 27.1384 45.8854 27.0794 45.9637C27.0204 46.0419 26.9441 46.1053 26.8564 46.149C26.7687 46.1927 26.672 46.2154 26.5741 46.2153ZM15.5186 30.3177C15.385 30.3179 15.2548 30.2757 15.1467 30.1973C15.0386 30.1189 14.958 30.0082 14.9167 29.8812C14.8753 29.7542 14.8753 29.6174 14.9165 29.4903C14.9577 29.3633 15.0382 29.2525 15.1462 29.174L19.5334 25.9867L17.7579 20.5216C17.7133 20.3642 17.7315 20.1956 17.8085 20.0512C17.8856 19.9069 18.0156 19.798 18.1712 19.7474C18.3268 19.6969 18.4959 19.7085 18.6431 19.7799C18.7903 19.8514 18.9041 19.977 18.9607 20.1306L20.8782 26.0323C20.9194 26.1592 20.9194 26.296 20.8781 26.423C20.8368 26.55 20.7564 26.6606 20.6483 26.7391L15.8897 30.1969C15.7818 30.2753 15.6519 30.3176 15.5186 30.3177Z" fill="#010ABC"/>
<path d="M25.7631 28.6315C25.6984 28.6317 25.6336 28.6215 25.5687 28.6008L20.0823 26.8297C19.9227 26.7782 19.7902 26.6654 19.7137 26.5161C19.6373 26.3668 19.6233 26.1933 19.6749 26.0337C19.7264 25.8742 19.8392 25.7416 19.9885 25.6652C20.1377 25.5887 20.3112 25.5748 20.4708 25.6263L25.9571 27.3974C26.1007 27.4436 26.223 27.5395 26.302 27.6678C26.381 27.7962 26.4116 27.9486 26.3882 28.0975C26.3647 28.2464 26.2889 28.3821 26.1743 28.48C26.0596 28.5779 25.9138 28.6316 25.7631 28.6315ZM32.5767 18.236C32.4462 18.236 32.3159 18.1959 32.205 18.1153L26.6709 14.0944C26.5353 13.9958 26.4443 13.8474 26.4181 13.6818C26.3919 13.5161 26.4326 13.3469 26.5312 13.2112C26.6298 13.0756 26.7782 12.9847 26.9439 12.9585C27.1095 12.9323 27.2787 12.9729 27.4144 13.0715L32.5767 16.8224L37.727 13.0804C37.8629 12.9873 38.0297 12.9508 38.192 12.9788C38.3544 13.0068 38.4993 13.0971 38.5962 13.2303C38.693 13.3635 38.7341 13.5293 38.7106 13.6923C38.6871 13.8553 38.601 14.0028 38.4705 14.1033L32.9485 18.1153C32.8404 18.1938 32.7103 18.2361 32.5767 18.236Z" fill="#010ABC"/>
<path d="M32.5764 23.681C32.4088 23.681 32.2479 23.6144 32.1294 23.4959C32.0108 23.3773 31.9442 23.2165 31.9442 23.0488V17.6039C31.9442 17.4362 32.0108 17.2754 32.1294 17.1568C32.2479 17.0383 32.4088 16.9717 32.5764 16.9717C32.7441 16.9717 32.9049 17.0383 33.0235 17.1568C33.142 17.2754 33.2086 17.4362 33.2086 17.6039V23.0488C33.2086 23.1318 33.1923 23.214 33.1605 23.2907C33.1287 23.3675 33.0822 23.4371 33.0235 23.4959C32.9648 23.5546 32.8951 23.6011 32.8184 23.6329C32.7417 23.6647 32.6594 23.681 32.5764 23.681Z" fill="#010ABC"/>
</svg>
