<svg width="20" height="17" viewBox="0 0 20 17" fill="none" xmlns="http://www.w3.org/2000/svg">
<path d="M20 2.05029C19.25 2.38363 18.4583 2.59196 17.625 2.71696C18.4583 2.21696 19.125 1.42529 19.4167 0.46696C18.625 0.925293 17.75 1.25863 16.7917 1.46696C16.0417 0.675293 14.9583 0.175293 13.7917 0.175293C11.5417 0.175293 9.70833 2.00863 9.70833 4.25863C9.70833 4.59196 9.75 4.88363 9.83333 5.17529C6.45833 5.00863 3.41667 3.38363 1.375 0.883627C1.04167 1.50863 0.833333 2.17529 0.833333 2.92529C0.833333 4.34196 1.54167 5.59196 2.66667 6.34196C2 6.30029 1.375 6.13363 0.791667 5.84196V5.88363C0.791667 7.88363 2.20833 9.55029 4.08333 9.92529C3.75 10.0086 3.375 10.0503 3 10.0503C2.75 10.0503 2.45833 10.0086 2.20833 9.96696C2.75 11.592 4.25 12.8003 6.04167 12.8003C4.625 13.8836 2.875 14.5503 0.958333 14.5503C0.625 14.5503 0.291667 14.5503 0 14.5086C1.83333 15.6753 3.95833 16.342 6.29167 16.342C13.8333 16.342 17.9583 10.092 17.9583 4.67529C17.9583 4.50863 17.9583 4.30029 17.9583 4.13363C18.75 3.59196 19.4583 2.88363 20 2.05029Z" fill="#1B212B"/>
</svg>
