<svg width="40" height="40" viewBox="0 0 40 40" fill="none" xmlns="http://www.w3.org/2000/svg">
<g clip-path="url(#clip0_1229_3353)">
<path d="M34.1422 5.85789C30.3646 2.08039 25.3422 0 20 0C14.6578 0 9.63539 2.08039 5.85781 5.85789C2.08039 9.63539 0 14.6578 0 20C0 25.3422 2.08039 30.3646 5.85781 34.1421C9.63539 37.9196 14.6578 40 20 40C25.3422 40 30.3646 37.9196 34.1422 34.1421C37.9196 30.3646 40 25.3422 40 20C40 14.6578 37.9196 9.63539 34.1422 5.85789ZM20 37.6562C15.2466 37.6562 10.9264 35.7674 7.74906 32.7016C9.46969 27.4443 14.413 23.8281 20 23.8281C25.587 23.8281 30.5303 27.4443 32.251 32.7017C29.0736 35.7674 24.7534 37.6562 20 37.6562ZM14.1406 15.625C14.1406 12.3941 16.7691 9.76562 20 9.76562C23.2309 9.76562 25.8594 12.3941 25.8594 15.625C25.8594 18.8559 23.2309 21.4844 20 21.4844C16.7691 21.4844 14.1406 18.8559 14.1406 15.625ZM34.0109 30.7308C32.2867 26.6968 28.9012 23.6316 24.8096 22.2659C26.8643 20.7738 28.2031 18.353 28.2031 15.625C28.2031 11.1018 24.5232 7.42188 20 7.42188C15.4768 7.42188 11.7969 11.1018 11.7969 15.625C11.7969 18.353 13.1357 20.7738 15.1905 22.2659C11.0988 23.6316 7.71328 26.6968 5.98906 30.7308C3.70422 27.7546 2.34375 24.0334 2.34375 20C2.34375 10.2643 10.2643 2.34375 20 2.34375C29.7357 2.34375 37.6562 10.2643 37.6562 20C37.6562 24.0334 36.2958 27.7546 34.0109 30.7308Z" fill="white"/>
</g>
<defs>
<clipPath id="clip0_1229_3353">
<rect width="40" height="40" fill="white"/>
</clipPath>
</defs>
</svg>
