<svg width="43" height="45" viewBox="0 0 43 45" fill="none" xmlns="http://www.w3.org/2000/svg">
<path d="M26.8684 8.27417L17.2483 36.1997H10.1209L0.617615 8.27417H7.39453L13.2172 27.7091C13.5288 28.7607 13.717 29.689 13.782 30.4939H13.8988C13.9897 29.624 14.1909 28.6698 14.5025 27.6312L20.2862 8.27417H26.8684Z" fill="white"/>
<path d="M23.4171 40.4791V34.2474C24.5466 35.1952 25.7734 35.9092 27.0976 36.3896C28.4219 36.8569 29.7591 37.0906 31.1093 37.0906C31.9012 37.0906 32.5893 37.0192 33.1735 36.8764C33.7707 36.7336 34.264 36.5389 34.6535 36.2922C35.056 36.0325 35.3546 35.7339 35.5493 35.3964C35.744 35.0459 35.8414 34.6694 35.8414 34.2669C35.8414 33.7216 35.6856 33.2348 35.374 32.8064C35.0625 32.378 34.634 31.982 34.0888 31.6185C33.5565 31.255 32.9203 30.9044 32.1803 30.5669C31.4403 30.2293 30.6419 29.8853 29.785 29.5348C27.604 28.626 25.9746 27.516 24.8971 26.2047C23.8325 24.8935 23.3002 23.3096 23.3002 21.4531C23.3002 19.9991 23.5923 18.7527 24.1766 17.7141C24.7608 16.6625 25.5527 15.7992 26.5524 15.1241C27.565 14.449 28.7334 13.9557 30.0577 13.6441C31.3819 13.3195 32.784 13.1572 34.264 13.1572C35.7181 13.1572 37.0034 13.2481 38.1199 13.4299C39.2493 13.5986 40.288 13.8648 41.2357 14.2283V20.051C40.7683 19.7264 40.2555 19.4408 39.6972 19.1941C39.152 18.9475 38.5872 18.7462 38.003 18.5904C37.4188 18.4217 36.8346 18.2983 36.2504 18.2204C35.6791 18.1425 35.1339 18.1036 34.6146 18.1036C33.9005 18.1036 33.2514 18.175 32.6672 18.3178C32.083 18.4476 31.5896 18.6359 31.1872 18.8825C30.7847 19.1292 30.4731 19.4278 30.2524 19.7783C30.0317 20.1159 29.9214 20.4989 29.9214 20.9273C29.9214 21.3947 30.0447 21.8166 30.2914 22.1931C30.538 22.5566 30.8886 22.9072 31.3429 23.2447C31.7973 23.5693 32.3491 23.8938 32.9982 24.2184C33.6474 24.53 34.3809 24.8545 35.1988 25.1921C36.3153 25.6595 37.3149 26.1593 38.1978 26.6916C39.0936 27.2109 39.8595 27.8016 40.4957 28.4637C41.1318 29.1258 41.6187 29.8853 41.9562 30.7421C42.2938 31.586 42.4625 32.5727 42.4625 33.7022C42.4625 35.2601 42.1639 36.5713 41.5667 37.6359C40.9825 38.6875 40.1841 39.5443 39.1714 40.2065C38.1588 40.8556 36.9774 41.323 35.6272 41.6086C34.29 41.8942 32.8749 42.037 31.3819 42.037C29.8499 42.037 28.3894 41.9072 27.0003 41.6475C25.6241 41.3879 24.4297 40.9984 23.4171 40.4791Z" fill="white"/>
<path d="M30.5215 1.32031L15.6824 43.1551" stroke="white" stroke-width="2" stroke-linecap="round"/>
</svg>
