<svg width="22" height="18" viewBox="0 0 22 18" fill="none" xmlns="http://www.w3.org/2000/svg">
<path fill-rule="evenodd" clip-rule="evenodd" d="M11 0.575684C11.928 0.575684 12.8799 0.599562 13.8025 0.638636L14.8922 0.690735L15.9353 0.752602L16.9121 0.818811L17.8043 0.888276C18.7725 0.962384 19.6836 1.37556 20.3773 2.05511C21.0709 2.73467 21.5027 3.63707 21.5967 4.60356L21.6401 5.06485L21.7215 6.05256C21.7975 7.07608 21.8539 8.19186 21.8539 9.2588C21.8539 10.3257 21.7975 11.4415 21.7215 12.465L21.6401 13.4527C21.626 13.6112 21.6119 13.7642 21.5967 13.914C21.5027 14.8807 21.0707 15.7832 20.3768 16.4628C19.683 17.1424 18.7716 17.5555 17.8032 17.6293L16.9132 17.6977L15.9364 17.765L14.8922 17.8269L13.8025 17.879C12.8689 17.9195 11.9345 17.9405 11 17.9419C10.0655 17.9405 9.13115 17.9195 8.19753 17.879L7.1078 17.8269L6.06475 17.765L5.08789 17.6977L4.1957 17.6293C3.22748 17.5552 2.31641 17.142 1.62276 16.4625C0.929111 15.7829 0.497322 14.8805 0.403355 13.914L0.35994 13.4527L0.278536 12.465C0.195544 11.3982 0.151376 10.3288 0.146118 9.2588C0.146118 8.19186 0.202558 7.07608 0.278536 6.05256L0.35994 5.06485C0.37405 4.90639 0.38816 4.75335 0.403355 4.60356C0.497286 3.63724 0.928919 2.73497 1.62235 2.05544C2.31577 1.37591 3.22659 0.962628 4.19462 0.888276L5.08572 0.818811L6.06257 0.752602L7.10672 0.690735L8.19645 0.638636C9.13043 0.598078 10.0652 0.577089 11 0.575684ZM8.82923 6.62673V11.8909C8.82923 12.3923 9.37193 12.7049 9.80608 12.4553L14.3647 9.8232C14.4639 9.7661 14.5463 9.68386 14.6036 9.58478C14.6609 9.48569 14.6911 9.37325 14.6911 9.2588C14.6911 9.14434 14.6609 9.0319 14.6036 8.93282C14.5463 8.83373 14.4639 8.7515 14.3647 8.69439L9.80608 6.06341C9.70705 6.00624 9.59471 5.97614 9.48036 5.97616C9.36601 5.97618 9.25368 6.00631 9.15467 6.06352C9.05565 6.12072 8.97345 6.20299 8.91632 6.30205C8.8592 6.40111 8.82916 6.51346 8.82923 6.62781V6.62673Z" fill="#1B212B"/>
</svg>
